<svg width="250" height="80" viewBox="0 0 250 80" fill="none" xmlns="http://www.w3.org/2000/svg">
  <path d="M40 60C40 60 20 48 20 30C20 18 32 12 40 12C48 12 60 18 60 30C60 48 40 60 40 60Z" fill="#064E3B"/>
  <path d="M40 54C40 54 28 44 28 32C28 24 35 21 40 21C45 21 52 24 52 32C52 44 40 54 40 54Z" fill="#10B981"/>
  <circle cx="40" cy="28" r="5" fill="#064E3B"/>
  <text x="80" y="45" font-family="Georgia, serif" font-size="32" font-weight="600" fill="#064E3B">Vivaantra</text>
  <text x="82" y="65" font-family="Verdana, sans-serif" font-size="11" letter-spacing="2" fill="#6B7280">MANTRA FOR LIFE</text>
</svg>
